HIERARCHY
ROOT Hips
{
	OFFSET 0.000000 0.000000 0.000000
	CHANNELS 6 Xposition Yposition Zposition Zrotation Yrotation Xrotation 
	JOINT LHipJoint
	{
		OFFSET 0.000000 0.000000 0.000000
		CHANNELS 3 Zrotation Yrotation Xrotation
		JOINT LeftUpLeg
		{
			OFFSET 1.363060 -1.794630 0.839290
			CHANNELS 3 Zrotation Yrotation Xrotation
			JOINT LeftLeg
			{
				OFFSET 2.448110 -6.726130 0.000000
				CHANNELS 3 Zrotation Yrotation Xrotation
				JOINT LeftFoot
				{
					OFFSET 2.562200 -7.039590 0.000000
					CHANNELS 3 Zrotation Yrotation Xrotation
					JOINT LeftToeBase
					{
						OFFSET 0.157640 -0.433110 2.322550
						CHANNELS 3 Zrotation Yrotation Xrotation
						End Site
						{
							OFFSET 0.000000 0.000000 0.000000
						}
					}
				}
			}
		}
	}
	JOINT RHipJoint
	{
		OFFSET 0.000000 0.000000 0.000000
		CHANNELS 3 Zrotation Yrotation Xrotation
		JOINT RightUpLeg
		{
			OFFSET -1.305520 -1.794630 0.839290
			CHANNELS 3 Zrotation Yrotation Xrotation
			JOINT RightLeg
			{
				OFFSET -2.542530 -6.985550 0.000000
				CHANNELS 3 Zrotation Yrotation Xrotation
				JOINT RightFoot
				{
					OFFSET -2.568260 -7.056230 0.000000
					CHANNELS 3 Zrotation Yrotation Xrotation
					JOINT RightToeBase
					{
						OFFSET -0.164730 -0.452590 2.363150
						CHANNELS 3 Zrotation Yrotation Xrotation
						End Site
						{
							OFFSET 0.000000 0.000000 0.000000
						}
					}
				}
			}
		}
	}
	JOINT LowerBack
	{
		OFFSET 0.000000 0.000000 0.000000
		CHANNELS 3 Zrotation Yrotation Xrotation
		JOINT Spine
		{
			OFFSET 0.028270 2.035590 -0.193380
			CHANNELS 3 Zrotation Yrotation Xrotation
			JOINT Spine1
			{
				OFFSET 0.056720 2.048850 -0.042750
				CHANNELS 3 Zrotation Yrotation Xrotation
				JOINT Neck
				{
					OFFSET 0.000000 0.000000 0.000000
					CHANNELS 3 Zrotation Yrotation Xrotation
					JOINT Neck1
					{
						OFFSET -0.054170 1.746240 0.172020
						CHANNELS 3 Zrotation Yrotation Xrotation
						JOINT Head
						{
							OFFSET 0.104070 1.761360 -0.123970
							CHANNELS 3 Zrotation Yrotation Xrotation
							End Site
							{
								OFFSET 0.000000 0.000000 0.000000
							}
						}
					}
				}
				JOINT LeftShoulder
				{
					OFFSET 0.000000 0.000000 0.000000
					CHANNELS 3 Zrotation Yrotation Xrotation
					JOINT LeftArm
					{
						OFFSET 3.362410 1.200890 -0.311210
						CHANNELS 3 Zrotation Yrotation Xrotation
						JOINT LeftForeArm
						{
							OFFSET 4.983000 -0.000000 -0.000000
							CHANNELS 3 Zrotation Yrotation Xrotation
							JOINT LeftHand
							{
								OFFSET 3.483560 -0.000000 -0.000000
								CHANNELS 3 Zrotation Yrotation Xrotation
								JOINT LeftFingerBase
								{
									OFFSET 0.000000 0.000000 0.000000
									CHANNELS 3 Zrotation Yrotation Xrotation
									JOINT LeftHandIndex1
									{
										OFFSET 0.715260 -0.000000 -0.000000
										CHANNELS 3 Zrotation Yrotation Xrotation
										End Site
										{
											OFFSET 0.000000 0.000000 0.000000
										}
									}
								}
								JOINT LThumb
								{
									OFFSET 0.000000 0.000000 0.000000
									CHANNELS 3 Zrotation Yrotation Xrotation
									End Site
									{
										OFFSET 0.000000 0.000000 0.000000
									}
								}
							}
						}
					}
				}
				JOINT RightShoulder
				{
					OFFSET 0.000000 0.000000 0.000000
					CHANNELS 3 Zrotation Yrotation Xrotation
					JOINT RightArm
					{
						OFFSET -3.136600 1.374050 -0.404650
						CHANNELS 3 Zrotation Yrotation Xrotation
						JOINT RightForeArm
						{
							OFFSET -5.241900 -0.000000 -0.000000
							CHANNELS 3 Zrotation Yrotation Xrotation
							JOINT RightHand
							{
								OFFSET -3.444170 -0.000000 -0.000000
								CHANNELS 3 Zrotation Yrotation Xrotation
								JOINT RightFingerBase
								{
									OFFSET 0.000000 0.000000 0.000000
									CHANNELS 3 Zrotation Yrotation Xrotation
									JOINT RightHandIndex1
									{
										OFFSET -0.622530 -0.000000 -0.000000
										CHANNELS 3 Zrotation Yrotation Xrotation
										End Site
										{
											OFFSET 0.000000 0.000000 0.000000
										}
									}
								}
								JOINT RThumb
								{
									OFFSET 0.000000 0.000000 0.000000
									CHANNELS 3 Zrotation Yrotation Xrotation
									End Site
									{
										OFFSET 0.000000 0.000000 0.000000
									}
								}
							}
						}
					}
				}
			}
		}
	}
}
MOTION
Frames: 11
Frame Time: 0.008333
3.751548 16.262899 -9.973561 143.640054 -77.742035 -131.350466 0.406639 -5.670574 -5.027324 -15.157203 10.035449 -45.174796 11.913321 19.695520 68.343496 3.156461 -20.193586 9.877346 0.762800 -5.577500 -15.563300 -4.530865 2.443830 -3.126392 -0.176185 7.997044 -44.917075 -9.154496 -19.033545 58.954058 -0.034497 -4.601157 -14.165949 -0.212600 2.968600 -8.191500 5.422364 -1.367865 36.213964 0.022614 -0.376873 0.017122 -3.052661 -0.122245 -1.965564 -9.004170 5.492832 -25.289556 -8.221122 10.368431 4.795723 -3.837100 1.998800 12.120800 -6.936191 -4.444099 0.922800 -85.308993 -35.019767 110.334893 36.855511 -44.844828 -13.950698 0.265315 0.221991 -4.059118 20.487595 -12.424555 -4.614000 -7.125000 0.000000 0.000000 -4.889000 16.544300 3.306600 11.698246 4.289398 -0.530348 62.651403 8.265536 45.740175 -22.941103 35.015122 -9.114225 -1.316547 2.136677 -61.960261 16.286287 -36.643482 -9.656700 7.125000 0.000000 0.000000 57.303100 -59.886900 -25.663000 
3.686264 16.233585 -10.098652 138.667048 -78.367253 -126.516743 0.570255 -5.641038 -5.069259 -14.971213 11.309475 -46.100255 12.202885 19.599762 69.124499 3.099105 -19.619868 10.683211 1.844400 -8.534200 -24.348800 -4.474461 2.383064 -3.090959 -0.352219 7.453796 -44.974540 -9.544695 -19.185441 60.166651 -0.099235 -4.578908 -15.128695 -0.168200 2.642400 -7.284600 5.559974 -1.614450 36.406405 0.017629 -0.610023 0.005029 -2.894275 -0.256238 -1.966611 -9.989156 4.060863 -25.599777 -7.428971 8.778975 4.685829 -3.458600 1.330200 11.952800 -7.023822 -4.379836 0.807477 -85.833583 -34.552741 109.491122 36.405418 -44.630172 -13.736838 0.270699 0.241618 -3.093522 20.657307 -12.789611 -4.796400 -7.125000 0.000000 0.000000 -4.786200 16.115100 3.281200 11.643591 4.384618 -0.546139 62.158682 8.295583 46.328689 -23.017964 35.095809 -9.183574 -1.343905 2.155058 -62.412198 16.128230 -37.381050 -9.693300 7.125000 0.000000 0.000000 58.183600 -60.399300 -26.945800 
3.624095 16.190314 -10.201409 129.590761 -79.355106 -117.781285 0.720053 -5.663870 -5.124149 -14.750162 11.554645 -46.618264 12.332501 19.532849 69.500280 3.032827 -18.786049 11.519833 1.830900 -8.504500 -24.257200 -4.330423 2.281885 -3.052203 -0.322650 5.908914 -44.686946 -9.972788 -19.246698 61.423175 -0.158571 -4.576058 -16.008751 -0.181600 2.744900 -7.569300 6.239416 -2.364721 36.756694 0.009009 -1.319480 0.032323 -2.933578 -0.614546 -1.887085 -11.052043 2.494856 -26.229295 -6.529822 7.154765 4.491425 -2.981100 0.653200 11.846400 -7.166489 -4.294834 0.718195 -86.006295 -34.630059 109.105211 36.181067 -44.502365 -13.678443 0.236931 0.301101 -2.981235 22.503259 -13.554801 -5.611100 -7.125000 0.000000 0.000000 -3.532100 15.035700 2.499700 11.560767 4.519279 -0.538149 61.705830 8.667658 47.006713 -23.264031 35.103982 -8.989199 -1.395836 2.038098 -62.641006 16.975809 -31.889355 -9.114300 7.125000 0.000000 0.000000 52.240400 -56.600900 -18.240500 
3.567186 16.124064 -10.308032 124.107775 -79.770151 -112.354179 0.903406 -5.621517 -5.199134 -14.516590 12.488806 -47.474695 12.498693 19.382315 69.449730 2.897764 -15.111113 8.750335 2.200000 -9.270800 -26.646000 -4.241660 2.231820 -3.021002 0.073830 4.918466 -44.830151 -10.393379 -19.386956 62.718949 -0.140063 -4.936879 -16.584119 -0.280000 3.403200 -9.403500 6.467881 -2.527901 36.925709 -0.074126 -1.458701 0.053580 -3.147663 -0.663982 -1.832024 -11.629181 0.875318 -26.347666 -5.490765 5.198997 4.293305 -2.576100 -0.075800 11.665500 -7.308262 -4.190438 0.644326 -85.886178 -34.571761 109.195797 36.299282 -44.570660 -13.786951 0.219944 0.302909 -3.450351 22.904639 -13.711896 -5.790400 -7.125000 0.000000 0.000000 -3.256500 14.820400 2.319000 11.433494 4.635046 -0.526014 61.753568 8.768519 47.032210 -23.292725 35.158443 -9.017970 -1.405060 2.035781 -62.755606 17.247403 -32.023399 -9.311800 7.125000 0.000000 0.000000 52.632500 -56.641300 -18.493600 
3.494279 16.078859 -10.403810 120.503909 -80.132129 -108.614046 1.064776 -5.560608 -5.264487 -14.159035 13.425829 -48.015203 12.423790 19.159758 68.677742 2.429182 -10.512297 6.280801 2.019400 -8.906400 -25.502900 -4.186357 2.220812 -3.001371 0.176073 4.765000 -45.030992 -10.755697 -19.565579 63.860282 -0.238509 -4.746982 -17.427157 -0.213800 2.977200 -8.215200 6.612950 -2.582868 36.776760 -0.152092 -1.521340 0.120662 -3.280513 -0.682354 -1.512365 -12.271973 -0.795367 -26.572578 -4.212469 3.295556 4.007255 -2.003800 -0.742600 11.490600 -7.469889 -4.030557 0.580279 -85.702996 -34.587447 108.999923 36.311479 -44.582460 -13.852076 0.211819 0.319493 -3.252389 23.642370 -14.165932 -6.199600 -7.125000 0.000000 0.000000 -2.776900 14.223100 2.011900 11.296562 4.754278 -0.477060 61.724528 9.025448 47.209820 -23.344708 35.241497 -9.067719 -1.438313 2.017421 -62.846535 18.038772 -32.223289 -9.862000 7.125000 0.000000 0.000000 53.584700 -56.622600 -18.955800 
3.399897 16.051371 -10.478864 116.375691 -80.316961 -104.336930 1.180903 -5.523952 -5.313600 -13.863199 13.940966 -48.054683 12.052269 18.896730 67.097757 1.772606 -6.290443 3.587957 1.821400 -8.483700 -24.193000 -4.100847 2.212852 -3.003888 0.045356 4.527413 -45.009565 -11.073266 -19.697123 64.844344 -0.296932 -4.965290 -18.536846 -0.307300 3.564000 -9.853200 6.605933 -2.709585 36.449250 -0.241150 -1.744387 0.221232 -3.246279 -0.793484 -1.027846 -13.230650 -2.921017 -27.068325 -2.465613 1.095103 3.727816 -1.159800 -1.495700 11.457100 -7.697300 -3.791233 0.507686 -85.466775 -34.727129 108.671687 36.246428 -44.548979 -13.898292 0.186453 0.366879 -2.770592 25.520617 -14.954845 -7.151100 -7.125000 0.000000 0.000000 -1.552400 13.060100 1.161900 11.117168 4.930716 -0.388822 61.512915 9.431568 47.622514 -23.448041 35.366352 -9.149591 -1.482705 2.000998 -63.077532 18.887904 -32.640383 -10.513500 7.125000 0.000000 0.000000 54.838300 -56.740500 -19.782700 
3.368114 16.002838 -10.559180 112.987550 -80.283929 -100.618961 1.290098 -5.501991 -5.401453 -13.449713 14.060705 -48.425833 11.410181 18.532286 64.784165 0.909024 -2.174601 2.185018 1.525400 -7.798200 -22.102900 -4.036830 2.199228 -2.957543 -0.237253 4.730255 -45.646727 -11.357842 -19.847395 65.743784 -0.249962 -5.581061 -19.176781 -0.398000 4.050400 -11.218600 5.993522 -2.768279 36.558093 -0.285567 -1.981780 0.217961 -2.655520 -0.967949 -1.167950 -14.574734 -4.956977 -27.036343 -0.711593 -0.892023 3.183963 -0.205900 -2.159400 11.284300 -7.921120 -3.602692 0.434723 -85.295034 -34.715867 107.732444 36.232928 -44.546823 -13.942417 0.189241 0.388338 -2.592052 25.963803 -15.312186 -7.468400 -7.125000 0.000000 0.000000 -1.289100 12.579600 0.977700 10.946589 5.146429 -0.287126 61.050832 9.719436 48.580728 -23.652186 35.491054 -9.196011 -1.528357 1.976707 -63.474276 19.317109 -32.116412 -10.664300 7.125000 0.000000 0.000000 54.664200 -56.313400 -19.077900 
3.300791 15.982759 -10.604170 109.701029 -80.422171 -96.887026 1.376185 -5.491017 -5.483272 -12.972605 13.886584 -48.357619 10.570841 18.095873 61.895972 -0.018502 1.600890 1.411928 1.062600 -6.553900 -18.400200 -3.936424 2.191520 -2.947993 -0.344081 4.271552 -46.105612 -11.564945 -19.891127 66.350045 -0.287939 -5.472130 -19.392703 -0.383500 3.977000 -11.012100 6.037278 -2.718752 36.097813 -0.406079 -1.979325 0.297686 -2.915856 -0.930073 -0.840419 -14.939194 -6.623491 -26.929281 0.621089 -2.879835 2.599917 0.332700 -2.814300 11.063800 -8.108606 -3.413839 0.430361 -85.092872 -34.789175 107.942052 36.243050 -44.533224 -13.970240 0.182932 0.379314 -2.408860 26.104953 -15.254057 -7.486400 -7.125000 0.000000 0.000000 -1.183700 12.632500 0.896400 10.788518 5.245855 -0.185545 61.042495 9.888963 48.616532 -23.744589 35.649419 -9.305739 -1.577423 1.938969 -63.883142 20.448079 -32.665645 -11.549400 7.125000 0.000000 0.000000 56.298200 -56.448800 -20.146700 
3.226917 15.990490 -10.651629 104.882269 -80.713243 -92.009483 1.423409 -5.468602 -5.523372 -12.190654 13.407676 -47.642929 9.600380 17.577897 58.586818 -0.844303 4.685807 1.370974 0.647700 -5.148200 -14.331600 -3.831921 2.208398 -2.953172 -0.200236 3.807904 -45.839148 -11.704603 -19.913251 66.763062 -0.310470 -5.568717 -19.819237 -0.300800 3.526500 -9.748100 6.034655 -2.841819 36.177109 -0.429989 -2.131789 0.361029 -2.776154 -1.011133 -0.802440 -15.250347 -7.896314 -26.542445 1.650488 -4.471613 1.841729 0.724800 -3.349200 10.699100 -8.234381 -3.300797 0.453273 -84.979447 -34.921837 107.999360 36.201850 -44.486345 -13.945212 0.163861 0.382260 -2.311311 26.546639 -14.911824 -7.479500 -7.125000 0.000000 0.000000 -0.845500 12.938400 0.634800 10.705393 5.313456 -0.099650 60.834473 9.988163 48.925289 -23.857331 35.732155 -9.324447 -1.576115 1.938944 -64.191659 20.046897 -32.254588 -11.173700 7.125000 0.000000 0.000000 55.476000 -56.260000 -19.426900 
3.159594 15.998865 -10.687278 100.831995 -81.037871 -87.810234 1.471360 -5.437697 -5.572732 -11.260103 12.857275 -47.047738 8.629636 16.977148 55.176750 -1.558269 7.235819 1.814262 0.407000 -4.095400 -11.345200 -3.747277 2.233309 -2.934404 -0.124497 3.756969 -45.552957 -11.747268 -19.933717 66.906888 -0.321448 -5.936618 -20.589947 -0.214900 2.984400 -8.235400 5.994694 -2.907628 36.323574 -0.438155 -2.189645 0.364372 -2.542434 -1.060286 -0.967487 -15.761125 -9.034375 -26.258109 2.845277 -5.692271 1.486445 1.289300 -3.728300 10.649400 -8.353284 -3.178570 0.447780 -85.078461 -34.849349 107.881155 36.141902 -44.446852 -13.910910 0.161419 0.380610 -2.607334 26.381277 -14.910674 -7.423800 -7.125000 0.000000 0.000000 -0.955600 12.966800 0.716900 10.599238 5.430114 -0.014957 60.798006 10.148546 49.029112 -23.562829 35.496714 -9.204861 -1.606030 1.926656 -64.262854 20.673008 -32.673819 -11.703200 7.125000 0.000000 0.000000 56.520800 -56.415500 -20.218700 
3.087116 15.998865 -10.708753 96.706063 -81.385296 -83.625932 1.511762 -5.393368 -5.605063 -10.318737 12.377566 -46.338980 7.731122 16.345076 51.900040 -2.159629 9.355218 2.586660 0.351900 -3.811300 -10.546400 -3.663446 2.266784 -2.923390 0.306905 3.411731 -45.226250 -11.797899 -19.940245 67.061483 -0.388372 -5.798622 -21.019132 -0.363400 3.872600 -10.718700 6.018568 -2.942037 36.568685 -0.448073 -2.183478 0.356180 -2.406098 -1.066846 -1.207688 -16.049580 -10.014602 -25.886869 3.866026 -6.839726 1.212433 1.716900 -4.096500 10.633300 -8.444611 -3.080850 0.442901 -85.245767 -34.638635 107.834817 35.939295 -44.322634 -13.800727 0.154567 0.394597 -2.709845 26.718859 -15.269361 -7.712900 -7.125000 0.000000 0.000000 -0.759200 12.505800 0.576800 10.502723 5.529473 0.053126 61.002751 10.217724 48.897616 -23.125811 35.136474 -8.998643 -1.607130 1.927442 -64.160217 20.871737 -32.895602 -11.896000 7.125000 0.000000 0.000000 56.950200 -56.519600 -20.610600 
